<mxfile host="app.diagrams.net" modified="2023-05-05T14:47:30.084Z" agent="Mozilla/5.0 (X11; Ubuntu; Linux x86_64; rv:109.0) Gecko/20100101 Firefox/112.0" etag="hrV3ZSovPyKKEsn_W6eA" version="21.2.9" type="device">
  <diagram name="Page-1" id="UoKeEZk8qrJiN1z6IXMx">
    <mxGraphModel dx="1362" dy="766" grid="1" gridSize="10" guides="1" tooltips="1" connect="1" arrows="1" fold="1" page="1" pageScale="1" pageWidth="850" pageHeight="1100" math="0" shadow="0">
      <root>
        <mxCell id="0" />
        <mxCell id="1" parent="0" />
        <mxCell id="5Q4gcwFhn1eUK5E1_kNt-127" value="" style="rounded=0;whiteSpace=wrap;html=1;glass=0;fillColor=none;strokeWidth=3;strokeColor=#f57900;perimeterSpacing=1;" parent="1" vertex="1">
          <mxGeometry x="100" y="280" width="880" height="190" as="geometry" />
        </mxCell>
        <mxCell id="5Q4gcwFhn1eUK5E1_kNt-125" value="" style="rounded=0;whiteSpace=wrap;html=1;glass=0;fillColor=none;strokeWidth=3;strokeColor=#73d216;" parent="1" vertex="1">
          <mxGeometry x="100" y="80" width="880" height="190" as="geometry" />
        </mxCell>
        <mxCell id="5Q4gcwFhn1eUK5E1_kNt-126" value="&lt;b&gt;&lt;font data-font-src=&quot;https://fonts.googleapis.com/css?family=Merienda+One+&quot; style=&quot;font-size: 19px;&quot; face=&quot;Merienda One&quot;&gt;&lt;i&gt;&lt;font style=&quot;font-size: 19px;&quot;&gt;&lt;font style=&quot;font-size: 19px;&quot;&gt;&lt;font style=&quot;font-size: 19px;&quot;&gt;&lt;font style=&quot;font-size: 19px;&quot;&gt;&lt;font style=&quot;font-size: 18px;&quot;&gt;&lt;font style=&quot;font-size: 18px;&quot;&gt;DATA PREPARATION&lt;br&gt;&lt;/font&gt;&lt;/font&gt;&lt;/font&gt;&lt;/font&gt;&lt;/font&gt;&lt;/font&gt;&lt;/i&gt;&lt;/font&gt;&lt;/b&gt;" style="text;html=1;align=center;verticalAlign=middle;resizable=0;points=[];autosize=1;strokeColor=none;fillColor=none;" parent="1" vertex="1">
          <mxGeometry x="740" y="80" width="240" height="40" as="geometry" />
        </mxCell>
        <mxCell id="uEqAPO-9SHNmqftn-ccm-13" value="&lt;b&gt;&lt;font data-font-src=&quot;https://fonts.googleapis.com/css?family=Merienda+One+&quot; style=&quot;font-size: 19px;&quot; face=&quot;Merienda One&quot;&gt;&lt;i&gt;&lt;font style=&quot;font-size: 19px;&quot;&gt;&lt;font style=&quot;font-size: 19px;&quot;&gt;&lt;font style=&quot;font-size: 19px;&quot;&gt;&lt;font style=&quot;font-size: 19px;&quot;&gt;&lt;font style=&quot;font-size: 18px;&quot;&gt;&lt;font style=&quot;font-size: 18px;&quot;&gt;MODELS PREPARATION&lt;br&gt;&lt;/font&gt;&lt;/font&gt;&lt;/font&gt;&lt;/font&gt;&lt;/font&gt;&lt;/font&gt;&lt;/i&gt;&lt;/font&gt;&lt;/b&gt;" style="text;html=1;align=center;verticalAlign=middle;resizable=0;points=[];autosize=1;strokeColor=none;fillColor=none;" parent="1" vertex="1">
          <mxGeometry x="710" y="280" width="270" height="40" as="geometry" />
        </mxCell>
        <mxCell id="uEqAPO-9SHNmqftn-ccm-27" value="" style="rounded=0;whiteSpace=wrap;html=1;glass=0;fillColor=none;strokeWidth=3;strokeColor=#9933FF;" parent="1" vertex="1">
          <mxGeometry x="100" y="480" width="880" height="240" as="geometry" />
        </mxCell>
        <mxCell id="JGCpyCc607zzTOORuiyY-37" style="edgeStyle=orthogonalEdgeStyle;rounded=0;orthogonalLoop=1;jettySize=auto;html=1;entryX=0;entryY=0.5;entryDx=0;entryDy=0;" edge="1" parent="1" source="uEqAPO-9SHNmqftn-ccm-25" target="JGCpyCc607zzTOORuiyY-21">
          <mxGeometry relative="1" as="geometry" />
        </mxCell>
        <mxCell id="uEqAPO-9SHNmqftn-ccm-25" value="&lt;div style=&quot;font-size: 15px;&quot;&gt;&lt;font style=&quot;font-size: 15px;&quot; data-font-src=&quot;https://fonts.googleapis.com/css?family=Berkshire+Swash&quot; face=&quot;Verdana&quot;&gt;&lt;i&gt;&lt;font style=&quot;font-size: 15px;&quot;&gt;&lt;font style=&quot;font-size: 15px;&quot;&gt;&lt;font style=&quot;font-size: 15px;&quot;&gt;&lt;b&gt;Experiments&lt;/b&gt;&lt;/font&gt;&lt;/font&gt;&lt;/font&gt;&lt;/i&gt;&lt;/font&gt;&lt;/div&gt;&lt;div style=&quot;font-size: 15px;&quot;&gt;&lt;font style=&quot;font-size: 15px;&quot; data-font-src=&quot;https://fonts.googleapis.com/css?family=Berkshire+Swash&quot; face=&quot;Verdana&quot;&gt;&lt;i&gt;&lt;font style=&quot;font-size: 15px;&quot;&gt;&lt;font style=&quot;font-size: 15px;&quot;&gt;&lt;font style=&quot;font-size: 15px;&quot;&gt;&lt;b&gt;Visualizer&lt;/b&gt;&lt;/font&gt;&lt;/font&gt;&lt;/font&gt;&lt;/i&gt;&lt;/font&gt;&lt;/div&gt;" style="rounded=1;whiteSpace=wrap;html=1;fillColor=#dae8fc;strokeColor=#6c8ebf;shadow=1;gradientColor=none;" parent="1" vertex="1">
          <mxGeometry x="668.5" y="570" width="136" height="60" as="geometry" />
        </mxCell>
        <mxCell id="JGCpyCc607zzTOORuiyY-35" style="edgeStyle=orthogonalEdgeStyle;rounded=0;orthogonalLoop=1;jettySize=auto;html=1;entryX=0;entryY=0.5;entryDx=0;entryDy=0;" edge="1" parent="1" source="uEqAPO-9SHNmqftn-ccm-26" target="JGCpyCc607zzTOORuiyY-20">
          <mxGeometry relative="1" as="geometry" />
        </mxCell>
        <mxCell id="uEqAPO-9SHNmqftn-ccm-26" value="&lt;div style=&quot;font-size: 15px;&quot;&gt;&lt;font style=&quot;font-size: 15px;&quot; data-font-src=&quot;https://fonts.googleapis.com/css?family=Berkshire+Swash&quot; face=&quot;Verdana&quot;&gt;&lt;i&gt;&lt;font style=&quot;font-size: 15px;&quot;&gt;&lt;font style=&quot;font-size: 15px;&quot;&gt;&lt;font style=&quot;font-size: 15px;&quot;&gt;&lt;b&gt;Metrics Computation &lt;br&gt;&lt;/b&gt;&lt;/font&gt;&lt;/font&gt;&lt;/font&gt;&lt;/i&gt;&lt;/font&gt;&lt;/div&gt;&lt;div style=&quot;font-size: 15px;&quot;&gt;&lt;font style=&quot;font-size: 15px;&quot; data-font-src=&quot;https://fonts.googleapis.com/css?family=Berkshire+Swash&quot; face=&quot;Verdana&quot;&gt;&lt;i&gt;&lt;font style=&quot;font-size: 15px;&quot;&gt;&lt;font style=&quot;font-size: 15px;&quot;&gt;&lt;font style=&quot;font-size: 15px;&quot;&gt;&lt;b&gt;by Virny&lt;br&gt;&lt;/b&gt;&lt;/font&gt;&lt;/font&gt;&lt;/font&gt;&lt;/i&gt;&lt;/font&gt;&lt;/div&gt;" style="rounded=1;whiteSpace=wrap;html=1;fillColor=#dae8fc;strokeColor=#6c8ebf;shadow=1;gradientColor=none;" parent="1" vertex="1">
          <mxGeometry x="300" y="565" width="136" height="70" as="geometry" />
        </mxCell>
        <mxCell id="uEqAPO-9SHNmqftn-ccm-29" value="&lt;div align=&quot;right&quot;&gt;&lt;b&gt;&lt;font data-font-src=&quot;https://fonts.googleapis.com/css?family=Merienda+One+&quot; style=&quot;font-size: 19px;&quot; face=&quot;Merienda One&quot;&gt;&lt;i&gt;&lt;font style=&quot;font-size: 19px;&quot;&gt;&lt;font style=&quot;font-size: 19px;&quot;&gt;&lt;font style=&quot;font-size: 19px;&quot;&gt;&lt;font style=&quot;font-size: 19px;&quot;&gt;&lt;font style=&quot;font-size: 18px;&quot;&gt;&lt;font style=&quot;font-size: 18px;&quot;&gt;MODELS FAIRNESS &amp;amp; STABILITY &lt;br&gt;&lt;/font&gt;&lt;/font&gt;&lt;/font&gt;&lt;/font&gt;&lt;/font&gt;&lt;/font&gt;&lt;/i&gt;&lt;/font&gt;&lt;/b&gt;&lt;/div&gt;&lt;div align=&quot;right&quot;&gt;&lt;b&gt;&lt;font data-font-src=&quot;https://fonts.googleapis.com/css?family=Merienda+One+&quot; style=&quot;font-size: 19px;&quot; face=&quot;Merienda One&quot;&gt;&lt;i&gt;&lt;font style=&quot;font-size: 19px;&quot;&gt;&lt;font style=&quot;font-size: 19px;&quot;&gt;&lt;font style=&quot;font-size: 19px;&quot;&gt;&lt;font style=&quot;font-size: 19px;&quot;&gt;&lt;font style=&quot;font-size: 18px;&quot;&gt;&lt;font style=&quot;font-size: 18px;&quot;&gt;AUDIT&lt;/font&gt;&lt;/font&gt;&lt;/font&gt;&lt;/font&gt;&lt;/font&gt;&lt;/font&gt;&lt;/i&gt;&lt;/font&gt;&lt;/b&gt;&lt;/div&gt;" style="text;html=1;align=right;verticalAlign=middle;resizable=0;points=[];autosize=1;strokeColor=none;fillColor=none;" parent="1" vertex="1">
          <mxGeometry x="610" y="480" width="360" height="60" as="geometry" />
        </mxCell>
        <mxCell id="JGCpyCc607zzTOORuiyY-23" style="edgeStyle=orthogonalEdgeStyle;rounded=0;orthogonalLoop=1;jettySize=auto;html=1;entryX=0;entryY=0.5;entryDx=0;entryDy=0;" edge="1" parent="1" source="JGCpyCc607zzTOORuiyY-1" target="JGCpyCc607zzTOORuiyY-2">
          <mxGeometry relative="1" as="geometry" />
        </mxCell>
        <mxCell id="JGCpyCc607zzTOORuiyY-1" value="" style="rounded=1;whiteSpace=wrap;html=1;fillColor=#dae8fc;strokeColor=#6c8ebf;shadow=1;gradientColor=none;" vertex="1" parent="1">
          <mxGeometry x="150" y="110" width="160" height="140" as="geometry" />
        </mxCell>
        <mxCell id="JGCpyCc607zzTOORuiyY-24" style="edgeStyle=orthogonalEdgeStyle;rounded=0;orthogonalLoop=1;jettySize=auto;html=1;entryX=0;entryY=0.5;entryDx=0;entryDy=0;" edge="1" parent="1" source="JGCpyCc607zzTOORuiyY-2" target="JGCpyCc607zzTOORuiyY-3">
          <mxGeometry relative="1" as="geometry" />
        </mxCell>
        <mxCell id="JGCpyCc607zzTOORuiyY-2" value="&lt;div style=&quot;font-size: 15px;&quot;&gt;&lt;font style=&quot;font-size: 15px;&quot; data-font-src=&quot;https://fonts.googleapis.com/css?family=Berkshire+Swash&quot; face=&quot;Verdana&quot;&gt;&lt;i&gt;&lt;font style=&quot;font-size: 15px;&quot;&gt;&lt;font style=&quot;font-size: 15px;&quot;&gt;&lt;font style=&quot;font-size: 15px;&quot;&gt;&lt;b&gt;Error Injection&lt;br&gt;&lt;/b&gt;&lt;/font&gt;&lt;/font&gt;&lt;/font&gt;&lt;/i&gt;&lt;/font&gt;&lt;/div&gt;" style="rounded=1;whiteSpace=wrap;html=1;fillColor=#dae8fc;strokeColor=#6c8ebf;shadow=1;gradientColor=none;" vertex="1" parent="1">
          <mxGeometry x="380" y="150" width="136" height="60" as="geometry" />
        </mxCell>
        <mxCell id="JGCpyCc607zzTOORuiyY-30" style="edgeStyle=orthogonalEdgeStyle;rounded=0;orthogonalLoop=1;jettySize=auto;html=1;entryX=0;entryY=0.5;entryDx=0;entryDy=0;" edge="1" parent="1" source="JGCpyCc607zzTOORuiyY-3" target="JGCpyCc607zzTOORuiyY-15">
          <mxGeometry relative="1" as="geometry" />
        </mxCell>
        <mxCell id="JGCpyCc607zzTOORuiyY-3" value="&lt;div style=&quot;font-size: 15px;&quot;&gt;&lt;font style=&quot;font-size: 15px;&quot; data-font-src=&quot;https://fonts.googleapis.com/css?family=Berkshire+Swash&quot; face=&quot;Verdana&quot;&gt;&lt;i&gt;&lt;font style=&quot;font-size: 15px;&quot;&gt;&lt;font style=&quot;font-size: 15px;&quot;&gt;&lt;font style=&quot;font-size: 15px;&quot;&gt;&lt;b&gt;Data Preprocessing&lt;/b&gt;&lt;/font&gt;&lt;/font&gt;&lt;/font&gt;&lt;/i&gt;&lt;/font&gt;&lt;/div&gt;" style="rounded=1;whiteSpace=wrap;html=1;fillColor=#dae8fc;strokeColor=#6c8ebf;shadow=1;gradientColor=none;" vertex="1" parent="1">
          <mxGeometry x="594" y="150" width="136" height="60" as="geometry" />
        </mxCell>
        <mxCell id="JGCpyCc607zzTOORuiyY-6" value="&lt;div style=&quot;font-size: 15px;&quot;&gt;&lt;font style=&quot;font-size: 15px;&quot;&gt;&lt;b&gt;&lt;font style=&quot;font-size: 15px;&quot; data-font-src=&quot;https://fonts.googleapis.com/css?family=Berkshire+Swash&quot; face=&quot;Verdana&quot;&gt;&lt;i&gt;&lt;font style=&quot;font-size: 15px;&quot;&gt;&lt;font style=&quot;font-size: 15px;&quot;&gt;&lt;font style=&quot;font-size: 15px;&quot;&gt;Data Loader&lt;br&gt;&lt;/font&gt;&lt;/font&gt;&lt;/font&gt;&lt;/i&gt;&lt;/font&gt;&lt;/b&gt;&lt;/font&gt;&lt;/div&gt;" style="text;html=1;strokeColor=none;fillColor=none;align=center;verticalAlign=middle;whiteSpace=wrap;rounded=0;" vertex="1" parent="1">
          <mxGeometry x="140" y="120" width="180" height="30" as="geometry" />
        </mxCell>
        <mxCell id="JGCpyCc607zzTOORuiyY-7" value="&lt;div style=&quot;font-size: 13px;&quot;&gt;&lt;font style=&quot;font-size: 13px;&quot;&gt;&lt;b&gt;&lt;font style=&quot;font-size: 13px;&quot; data-font-src=&quot;https://fonts.googleapis.com/css?family=Berkshire+Swash&quot; face=&quot;Verdana&quot;&gt;&lt;i&gt;&lt;font style=&quot;font-size: 13px;&quot;&gt;&lt;font style=&quot;font-size: 12px;&quot;&gt;&lt;font style=&quot;font-size: 12px;&quot;&gt;Initial Dataset&lt;br&gt;&lt;/font&gt;&lt;/font&gt;&lt;/font&gt;&lt;/i&gt;&lt;/font&gt;&lt;/b&gt;&lt;/font&gt;&lt;/div&gt;" style="rounded=0;whiteSpace=wrap;html=1;fillColor=#f5f5f5;fontColor=#333333;strokeColor=#666666;" vertex="1" parent="1">
          <mxGeometry x="160" y="160" width="140" height="30" as="geometry" />
        </mxCell>
        <mxCell id="JGCpyCc607zzTOORuiyY-8" value="&lt;div style=&quot;font-size: 13px;&quot;&gt;&lt;font style=&quot;font-size: 13px;&quot;&gt;&lt;b&gt;&lt;font style=&quot;font-size: 13px;&quot; data-font-src=&quot;https://fonts.googleapis.com/css?family=Berkshire+Swash&quot; face=&quot;Verdana&quot;&gt;&lt;i&gt;&lt;font style=&quot;font-size: 13px;&quot;&gt;&lt;font style=&quot;font-size: 12px;&quot;&gt;&lt;font style=&quot;font-size: 12px;&quot;&gt;Dataset Attributes&lt;br&gt;&lt;/font&gt;&lt;/font&gt;&lt;/font&gt;&lt;/i&gt;&lt;/font&gt;&lt;/b&gt;&lt;/font&gt;&lt;/div&gt;" style="rounded=0;whiteSpace=wrap;html=1;fillColor=#f5f5f5;fontColor=#333333;strokeColor=#666666;" vertex="1" parent="1">
          <mxGeometry x="160" y="200" width="140" height="30" as="geometry" />
        </mxCell>
        <mxCell id="JGCpyCc607zzTOORuiyY-28" style="edgeStyle=orthogonalEdgeStyle;rounded=0;orthogonalLoop=1;jettySize=auto;html=1;entryX=0;entryY=0.5;entryDx=0;entryDy=0;" edge="1" parent="1" source="JGCpyCc607zzTOORuiyY-11" target="JGCpyCc607zzTOORuiyY-16">
          <mxGeometry relative="1" as="geometry" />
        </mxCell>
        <mxCell id="JGCpyCc607zzTOORuiyY-11" value="&lt;div style=&quot;font-size: 15px;&quot;&gt;&lt;font style=&quot;font-size: 15px;&quot; data-font-src=&quot;https://fonts.googleapis.com/css?family=Berkshire+Swash&quot; face=&quot;Verdana&quot;&gt;&lt;i&gt;&lt;font style=&quot;font-size: 15px;&quot;&gt;&lt;font style=&quot;font-size: 15px;&quot;&gt;&lt;font style=&quot;font-size: 15px;&quot;&gt;&lt;b&gt;Models &lt;br&gt;Tuning&lt;/b&gt;&lt;/font&gt;&lt;/font&gt;&lt;/font&gt;&lt;/i&gt;&lt;/font&gt;&lt;/div&gt;" style="rounded=1;whiteSpace=wrap;html=1;fillColor=#dae8fc;strokeColor=#6c8ebf;shadow=1;gradientColor=none;" vertex="1" parent="1">
          <mxGeometry x="458" y="340" width="136" height="60" as="geometry" />
        </mxCell>
        <mxCell id="JGCpyCc607zzTOORuiyY-26" style="rounded=0;orthogonalLoop=1;jettySize=auto;html=1;entryX=0;entryY=0.25;entryDx=0;entryDy=0;" edge="1" parent="1" source="JGCpyCc607zzTOORuiyY-12" target="JGCpyCc607zzTOORuiyY-11">
          <mxGeometry relative="1" as="geometry" />
        </mxCell>
        <mxCell id="JGCpyCc607zzTOORuiyY-12" value="&lt;div style=&quot;font-size: 13px;&quot;&gt;&lt;font style=&quot;font-size: 13px;&quot;&gt;&lt;b&gt;&lt;font style=&quot;font-size: 13px;&quot; data-font-src=&quot;https://fonts.googleapis.com/css?family=Berkshire+Swash&quot; face=&quot;Verdana&quot;&gt;&lt;i&gt;&lt;font style=&quot;font-size: 13px;&quot;&gt;&lt;font style=&quot;font-size: 12px;&quot;&gt;&lt;font style=&quot;font-size: 12px;&quot;&gt;Base Flow&lt;/font&gt;&lt;/font&gt;&lt;/font&gt;&lt;/i&gt;&lt;/font&gt;&lt;/b&gt;&lt;/font&gt;&lt;/div&gt;&lt;div style=&quot;font-size: 13px;&quot;&gt;&lt;font style=&quot;font-size: 13px;&quot;&gt;&lt;b&gt;&lt;font style=&quot;font-size: 13px;&quot; data-font-src=&quot;https://fonts.googleapis.com/css?family=Berkshire+Swash&quot; face=&quot;Verdana&quot;&gt;&lt;i&gt;&lt;font style=&quot;font-size: 13px;&quot;&gt;&lt;font style=&quot;font-size: 12px;&quot;&gt;&lt;font style=&quot;font-size: 12px;&quot;&gt;Dataset&lt;br&gt;&lt;/font&gt;&lt;/font&gt;&lt;/font&gt;&lt;/i&gt;&lt;/font&gt;&lt;/b&gt;&lt;/font&gt;&lt;/div&gt;" style="rounded=0;whiteSpace=wrap;html=1;fillColor=#d5e8d4;strokeColor=#82b366;" vertex="1" parent="1">
          <mxGeometry x="210" y="310" width="130" height="50" as="geometry" />
        </mxCell>
        <mxCell id="JGCpyCc607zzTOORuiyY-27" style="rounded=0;orthogonalLoop=1;jettySize=auto;html=1;" edge="1" parent="1" source="JGCpyCc607zzTOORuiyY-13" target="JGCpyCc607zzTOORuiyY-11">
          <mxGeometry relative="1" as="geometry" />
        </mxCell>
        <mxCell id="JGCpyCc607zzTOORuiyY-13" value="&lt;div style=&quot;font-size: 13px;&quot;&gt;&lt;font style=&quot;font-size: 13px;&quot;&gt;&lt;b&gt;&lt;font style=&quot;font-size: 13px;&quot; data-font-src=&quot;https://fonts.googleapis.com/css?family=Berkshire+Swash&quot; face=&quot;Verdana&quot;&gt;&lt;i&gt;&lt;font style=&quot;font-size: 13px;&quot;&gt;&lt;font style=&quot;font-size: 12px;&quot;&gt;&lt;font style=&quot;font-size: 12px;&quot;&gt;Models and Hyperparams for&amp;nbsp; Tuning&lt;br&gt;&lt;/font&gt;&lt;/font&gt;&lt;/font&gt;&lt;/i&gt;&lt;/font&gt;&lt;/b&gt;&lt;/font&gt;&lt;/div&gt;" style="rounded=0;whiteSpace=wrap;html=1;fillColor=#d5e8d4;strokeColor=#82b366;" vertex="1" parent="1">
          <mxGeometry x="210" y="380" width="130" height="65" as="geometry" />
        </mxCell>
        <mxCell id="JGCpyCc607zzTOORuiyY-15" value="&lt;div style=&quot;font-size: 13px;&quot;&gt;&lt;font style=&quot;font-size: 13px;&quot;&gt;&lt;b&gt;&lt;font style=&quot;font-size: 13px;&quot; data-font-src=&quot;https://fonts.googleapis.com/css?family=Berkshire+Swash&quot; face=&quot;Verdana&quot;&gt;&lt;i&gt;&lt;font style=&quot;font-size: 13px;&quot;&gt;&lt;font style=&quot;font-size: 12px;&quot;&gt;&lt;font style=&quot;font-size: 12px;&quot;&gt;Base Flow&lt;/font&gt;&lt;/font&gt;&lt;/font&gt;&lt;/i&gt;&lt;/font&gt;&lt;/b&gt;&lt;/font&gt;&lt;/div&gt;&lt;div style=&quot;font-size: 13px;&quot;&gt;&lt;font style=&quot;font-size: 13px;&quot;&gt;&lt;b&gt;&lt;font style=&quot;font-size: 13px;&quot; data-font-src=&quot;https://fonts.googleapis.com/css?family=Berkshire+Swash&quot; face=&quot;Verdana&quot;&gt;&lt;i&gt;&lt;font style=&quot;font-size: 13px;&quot;&gt;&lt;font style=&quot;font-size: 12px;&quot;&gt;&lt;font style=&quot;font-size: 12px;&quot;&gt;Dataset&lt;br&gt;&lt;/font&gt;&lt;/font&gt;&lt;/font&gt;&lt;/i&gt;&lt;/font&gt;&lt;/b&gt;&lt;/font&gt;&lt;/div&gt;" style="rounded=0;whiteSpace=wrap;html=1;fillColor=#d5e8d4;strokeColor=#82b366;" vertex="1" parent="1">
          <mxGeometry x="806" y="155" width="130" height="50" as="geometry" />
        </mxCell>
        <mxCell id="JGCpyCc607zzTOORuiyY-16" value="&lt;div style=&quot;font-size: 13px;&quot;&gt;&lt;font style=&quot;font-size: 13px;&quot;&gt;&lt;b&gt;&lt;font style=&quot;font-size: 13px;&quot; data-font-src=&quot;https://fonts.googleapis.com/css?family=Berkshire+Swash&quot; face=&quot;Verdana&quot;&gt;&lt;i&gt;&lt;font style=&quot;font-size: 13px;&quot;&gt;&lt;font style=&quot;font-size: 12px;&quot;&gt;&lt;font style=&quot;font-size: 12px;&quot;&gt;Models Config&lt;br&gt;&lt;/font&gt;&lt;/font&gt;&lt;/font&gt;&lt;/i&gt;&lt;/font&gt;&lt;/b&gt;&lt;/font&gt;&lt;/div&gt;" style="rounded=0;whiteSpace=wrap;html=1;fillColor=#d5e8d4;strokeColor=#82b366;" vertex="1" parent="1">
          <mxGeometry x="688.5" y="345" width="130" height="50" as="geometry" />
        </mxCell>
        <mxCell id="JGCpyCc607zzTOORuiyY-34" style="rounded=0;orthogonalLoop=1;jettySize=auto;html=1;entryX=0;entryY=0.25;entryDx=0;entryDy=0;" edge="1" parent="1" source="JGCpyCc607zzTOORuiyY-17" target="uEqAPO-9SHNmqftn-ccm-26">
          <mxGeometry relative="1" as="geometry" />
        </mxCell>
        <mxCell id="JGCpyCc607zzTOORuiyY-17" value="&lt;div style=&quot;font-size: 13px;&quot;&gt;&lt;font style=&quot;font-size: 13px;&quot;&gt;&lt;b&gt;&lt;font style=&quot;font-size: 13px;&quot; data-font-src=&quot;https://fonts.googleapis.com/css?family=Berkshire+Swash&quot; face=&quot;Verdana&quot;&gt;&lt;i&gt;&lt;font style=&quot;font-size: 13px;&quot;&gt;&lt;font style=&quot;font-size: 12px;&quot;&gt;&lt;font style=&quot;font-size: 12px;&quot;&gt;Base Flow&lt;/font&gt;&lt;/font&gt;&lt;/font&gt;&lt;/i&gt;&lt;/font&gt;&lt;/b&gt;&lt;/font&gt;&lt;/div&gt;&lt;div style=&quot;font-size: 13px;&quot;&gt;&lt;font style=&quot;font-size: 13px;&quot;&gt;&lt;b&gt;&lt;font style=&quot;font-size: 13px;&quot; data-font-src=&quot;https://fonts.googleapis.com/css?family=Berkshire+Swash&quot; face=&quot;Verdana&quot;&gt;&lt;i&gt;&lt;font style=&quot;font-size: 13px;&quot;&gt;&lt;font style=&quot;font-size: 12px;&quot;&gt;&lt;font style=&quot;font-size: 12px;&quot;&gt;Dataset&lt;br&gt;&lt;/font&gt;&lt;/font&gt;&lt;/font&gt;&lt;/i&gt;&lt;/font&gt;&lt;/b&gt;&lt;/font&gt;&lt;/div&gt;" style="rounded=0;whiteSpace=wrap;html=1;fillColor=#d5e8d4;strokeColor=#82b366;" vertex="1" parent="1">
          <mxGeometry x="153.5" y="500" width="110" height="50" as="geometry" />
        </mxCell>
        <mxCell id="JGCpyCc607zzTOORuiyY-33" style="rounded=0;orthogonalLoop=1;jettySize=auto;html=1;entryX=0;entryY=0.75;entryDx=0;entryDy=0;" edge="1" parent="1" source="JGCpyCc607zzTOORuiyY-18" target="uEqAPO-9SHNmqftn-ccm-26">
          <mxGeometry relative="1" as="geometry" />
        </mxCell>
        <mxCell id="JGCpyCc607zzTOORuiyY-18" value="&lt;div style=&quot;font-size: 13px;&quot;&gt;&lt;font style=&quot;font-size: 13px;&quot;&gt;&lt;b&gt;&lt;font style=&quot;font-size: 13px;&quot; data-font-src=&quot;https://fonts.googleapis.com/css?family=Berkshire+Swash&quot; face=&quot;Verdana&quot;&gt;&lt;i&gt;&lt;font style=&quot;font-size: 13px;&quot;&gt;&lt;font style=&quot;font-size: 12px;&quot;&gt;&lt;font style=&quot;font-size: 12px;&quot;&gt;Models Config&lt;br&gt;&lt;/font&gt;&lt;/font&gt;&lt;/font&gt;&lt;/i&gt;&lt;/font&gt;&lt;/b&gt;&lt;/font&gt;&lt;/div&gt;" style="rounded=0;whiteSpace=wrap;html=1;fillColor=#d5e8d4;strokeColor=#82b366;" vertex="1" parent="1">
          <mxGeometry x="153.5" y="650" width="110" height="50" as="geometry" />
        </mxCell>
        <mxCell id="JGCpyCc607zzTOORuiyY-32" style="edgeStyle=orthogonalEdgeStyle;rounded=0;orthogonalLoop=1;jettySize=auto;html=1;entryX=0;entryY=0.5;entryDx=0;entryDy=0;" edge="1" parent="1" source="JGCpyCc607zzTOORuiyY-19" target="uEqAPO-9SHNmqftn-ccm-26">
          <mxGeometry relative="1" as="geometry" />
        </mxCell>
        <mxCell id="JGCpyCc607zzTOORuiyY-19" value="&lt;div style=&quot;font-size: 13px;&quot;&gt;&lt;font style=&quot;font-size: 13px;&quot;&gt;&lt;b&gt;&lt;font style=&quot;font-size: 13px;&quot; data-font-src=&quot;https://fonts.googleapis.com/css?family=Berkshire+Swash&quot; face=&quot;Verdana&quot;&gt;&lt;i&gt;&lt;font style=&quot;font-size: 13px;&quot;&gt;&lt;font style=&quot;font-size: 12px;&quot;&gt;&lt;font style=&quot;font-size: 12px;&quot;&gt;Metrics Computation &lt;br&gt;&lt;/font&gt;&lt;/font&gt;&lt;/font&gt;&lt;/i&gt;&lt;/font&gt;&lt;/b&gt;&lt;/font&gt;&lt;/div&gt;&lt;div style=&quot;font-size: 13px;&quot;&gt;&lt;font style=&quot;font-size: 13px;&quot;&gt;&lt;b&gt;&lt;font style=&quot;font-size: 13px;&quot; data-font-src=&quot;https://fonts.googleapis.com/css?family=Berkshire+Swash&quot; face=&quot;Verdana&quot;&gt;&lt;i&gt;&lt;font style=&quot;font-size: 13px;&quot;&gt;&lt;font style=&quot;font-size: 12px;&quot;&gt;&lt;font style=&quot;font-size: 12px;&quot;&gt;Config&lt;br&gt;&lt;/font&gt;&lt;/font&gt;&lt;/font&gt;&lt;/i&gt;&lt;/font&gt;&lt;/b&gt;&lt;/font&gt;&lt;/div&gt;" style="rounded=0;whiteSpace=wrap;html=1;fillColor=#d5e8d4;strokeColor=#82b366;" vertex="1" parent="1">
          <mxGeometry x="128.5" y="570" width="110" height="60" as="geometry" />
        </mxCell>
        <mxCell id="JGCpyCc607zzTOORuiyY-36" style="edgeStyle=orthogonalEdgeStyle;rounded=0;orthogonalLoop=1;jettySize=auto;html=1;entryX=0;entryY=0.5;entryDx=0;entryDy=0;" edge="1" parent="1" source="JGCpyCc607zzTOORuiyY-20" target="uEqAPO-9SHNmqftn-ccm-25">
          <mxGeometry relative="1" as="geometry" />
        </mxCell>
        <mxCell id="JGCpyCc607zzTOORuiyY-20" value="&lt;div style=&quot;font-size: 13px;&quot;&gt;&lt;font style=&quot;font-size: 13px;&quot;&gt;&lt;b&gt;&lt;font style=&quot;font-size: 13px;&quot; data-font-src=&quot;https://fonts.googleapis.com/css?family=Berkshire+Swash&quot; face=&quot;Verdana&quot;&gt;&lt;i&gt;&lt;font style=&quot;font-size: 13px;&quot;&gt;&lt;font style=&quot;font-size: 12px;&quot;&gt;&lt;font style=&quot;font-size: 12px;&quot;&gt;Fairness and Variance Metrics&lt;br&gt;&lt;/font&gt;&lt;/font&gt;&lt;/font&gt;&lt;/i&gt;&lt;/font&gt;&lt;/b&gt;&lt;/font&gt;&lt;/div&gt;" style="rounded=0;whiteSpace=wrap;html=1;fillColor=#e1d5e7;strokeColor=#9673a6;" vertex="1" parent="1">
          <mxGeometry x="488" y="575" width="130" height="50" as="geometry" />
        </mxCell>
        <mxCell id="JGCpyCc607zzTOORuiyY-21" value="&lt;font face=&quot;Verdana&quot;&gt;&lt;b&gt;&lt;i&gt;Visualizations&lt;/i&gt;&lt;/b&gt;&lt;/font&gt;" style="rounded=0;whiteSpace=wrap;html=1;fillColor=#e1d5e7;strokeColor=#9673a6;" vertex="1" parent="1">
          <mxGeometry x="850" y="575" width="103" height="50" as="geometry" />
        </mxCell>
      </root>
    </mxGraphModel>
  </diagram>
</mxfile>
